<?xml version="1.0" encoding="utf-8"?>
<!-- Generator: Adobe Illustrator 27.3.1, SVG Export Plug-In . SVG Version: 6.00 Build 0)  -->
<svg version="1.1" id="Layer_1" xmlns="http://www.w3.org/2000/svg" xmlns:xlink="http://www.w3.org/1999/xlink" x="0px" y="0px"
	 viewBox="0 0 200.57 56.15" style="enable-background:new 0 0 200.57 56.15;" xml:space="preserve">
<style type="text/css">
	.st0{fill-rule:evenodd;clip-rule:evenodd;fill:#B61F24;}
	.st1{fill:#B61F24;}
	.st2{fill:#221F20;}
</style>
<path class="st0" d="M50.68,5.33l28.33,0.02c11.66,1.32,20.67,11.16,20.78,23.4c0.09,12.21-9.6,21.92-21.25,23.25
	c-0.03,0.02-0.06,0.02-0.09,0.02c-14.95,0.08-29.55,0-44.41,0c0.03-0.55,0.05-0.96,0.05-1.52c0-8.84-3.84-16.02-8.55-16.02
	c-0.14,0-0.29,0-0.42,0.02v17.55c-6.84,0-13.7,0-20.54,0L4.59,5.21c10.84,0,21.69,0,32.53,0c5.69,0,10.69,2.96,13.56,7.42V5.33z
	 M78.12,43.47l-1.4,1.26h-30.2v-1.55h-6.69v-1.43h2.21c1.08,0,1.96-0.88,1.96-1.96v-15c0-1.06-0.88-1.94-1.96-1.94H38.9V19.7h11.78
	h8.04c0.09,1.12,1.09,1.53,2.06,1.55h14.3v2.21c2.35,0.65,4,2.82,4,5.26c0,2.99-2.44,5.45-5.45,5.45h-2.09v-9.72H50.68v4.81h8.58
	c0.23,0.59,0.8,1.03,1.49,1.08h2.81v2.62h-11.3v7.4h24.15c1.37-0.29,2.43-1.49,2.62-2.85h1.06v5.96
	C79.44,43.47,78.79,43.47,78.12,43.47L78.12,43.47z M25.11,14.45h1.79c2.49,0,4.54,2.05,4.54,4.55c0,2.49-2.05,4.54-4.54,4.54h-1.79
	V14.45z"/>
<path class="st1" d="M112.6,43.62v-2.28c0-0.73-0.06-1.2-0.17-1.38s-0.32-0.27-0.62-0.29v-0.12c0.27-0.03,0.58-0.09,0.91-0.17
	c0.33-0.08,0.74-0.2,1.26-0.35c-0.02,0.27-0.03,0.55-0.03,0.82c-0.02,0.29-0.02,0.64-0.02,1.03v0.71v4.54c0,1.18,0.08,1.99,0.2,2.38
	c0.14,0.41,0.36,0.65,0.71,0.73v0.09h-0.05c-0.56-0.02-0.97-0.03-1.24-0.03h-0.47c-0.11-0.21-0.21-0.42-0.29-0.64
	c-0.09-0.23-0.15-0.46-0.2-0.68c-0.32,0.49-0.71,0.86-1.17,1.11c-0.46,0.26-0.97,0.38-1.55,0.38c-1.06,0-1.94-0.38-2.64-1.14
	c-0.71-0.76-1.06-1.7-1.06-2.85c0-1.08,0.36-1.97,1.08-2.67c0.7-0.7,1.61-1.05,2.71-1.05c0.62,0,1.17,0.17,1.64,0.5
	C112.06,42.59,112.4,43.04,112.6,43.62L112.6,43.62z M107.77,45.6c0,1.09,0.23,1.94,0.65,2.58c0.44,0.62,1.03,0.94,1.76,0.94
	c0.76,0,1.35-0.3,1.77-0.93c0.42-0.61,0.64-1.47,0.64-2.56c0-1.11-0.21-1.97-0.64-2.59c-0.44-0.62-1.03-0.94-1.79-0.94
	c-0.73,0-1.3,0.32-1.74,0.94C107.98,43.68,107.77,44.53,107.77,45.6L107.77,45.6z M115.17,49.35v-0.11
	c0.38-0.12,0.62-0.36,0.76-0.73c0.14-0.35,0.2-1.14,0.2-2.34v-0.35v-1.59c0-0.74-0.05-1.2-0.17-1.38c-0.11-0.18-0.32-0.29-0.64-0.3
	l-0.02-0.11c0.35-0.05,0.7-0.11,1.06-0.2c0.36-0.08,0.74-0.2,1.15-0.33c0,0.06,0,0.39-0.02,1.03c-0.03,0.62-0.03,1.18-0.03,1.68
	v1.62c0,1.18,0.06,1.94,0.2,2.29c0.14,0.33,0.38,0.58,0.76,0.7v0.11c-0.23-0.02-0.46-0.03-0.68-0.03c-0.24-0.02-0.56-0.02-0.97-0.02
	c-0.35,0-0.64,0-0.88,0.02C115.66,49.32,115.42,49.33,115.17,49.35L115.17,49.35z M115.93,40.19c0-0.23,0.09-0.42,0.24-0.59
	c0.15-0.15,0.36-0.23,0.59-0.23c0.24,0,0.44,0.08,0.59,0.24c0.17,0.17,0.24,0.35,0.24,0.58c0,0.23-0.08,0.42-0.24,0.58
	c-0.15,0.15-0.35,0.23-0.59,0.23c-0.24,0-0.44-0.08-0.59-0.23C116.02,40.63,115.93,40.43,115.93,40.19L115.93,40.19z M122.77,48.76
	c-0.8,0-1.43,0.14-1.87,0.39c-0.44,0.26-0.67,0.64-0.67,1.09c0,0.49,0.23,0.86,0.7,1.15c0.47,0.27,1.11,0.42,1.93,0.42
	c0.89,0,1.61-0.15,2.14-0.46c0.53-0.29,0.79-0.68,0.79-1.18c0-0.47-0.26-0.82-0.76-1.06C124.52,48.88,123.77,48.76,122.77,48.76
	L122.77,48.76z M122.98,42.02c-0.61,0-1.11,0.21-1.49,0.65c-0.38,0.44-0.58,1.02-0.58,1.73c0,0.68,0.2,1.24,0.56,1.65
	c0.38,0.42,0.88,0.62,1.5,0.62c0.64,0,1.12-0.21,1.47-0.62c0.35-0.42,0.52-1.03,0.52-1.82c0-0.68-0.18-1.21-0.53-1.62
	C124.08,42.22,123.59,42.02,122.98,42.02L122.98,42.02z M121.54,48.55c-0.5-0.05-0.86-0.12-1.08-0.24
	c-0.23-0.14-0.35-0.32-0.35-0.56s0.15-0.44,0.42-0.61c0.29-0.17,0.73-0.29,1.3-0.38c-0.77-0.15-1.38-0.44-1.8-0.85
	c-0.42-0.41-0.64-0.93-0.64-1.53c0-0.74,0.33-1.37,1.02-1.85c0.67-0.5,1.52-0.76,2.52-0.76c0.17,0,0.36,0.02,0.56,0.05
	c0.2,0.02,0.46,0.06,0.76,0.12c0.36-0.38,0.74-0.68,1.15-0.88c0.39-0.2,0.79-0.3,1.17-0.3c0.08,0,0.17,0,0.27,0.02
	c0.09,0,0.2,0.02,0.32,0.03l-0.47,1.49h-0.09c-0.11-0.2-0.26-0.35-0.47-0.49c-0.21-0.14-0.44-0.2-0.67-0.2
	c-0.17,0-0.32,0.03-0.47,0.11s-0.3,0.18-0.46,0.33c0.67,0.26,1.15,0.58,1.49,0.96c0.32,0.38,0.47,0.83,0.47,1.37
	c0,0.7-0.27,1.29-0.83,1.76c-0.55,0.47-1.27,0.74-2.17,0.79c-0.17,0.02-0.38,0.03-0.65,0.03c-0.82,0.03-1.21,0.17-1.21,0.38
	s0.52,0.36,1.53,0.46c0.3,0.02,0.53,0.05,0.7,0.06c1.14,0.09,1.97,0.3,2.5,0.62c0.53,0.3,0.79,0.74,0.79,1.3
	c0,0.71-0.39,1.27-1.2,1.7c-0.79,0.42-1.88,0.62-3.26,0.62c-1.11,0-2.02-0.17-2.73-0.53c-0.73-0.36-1.08-0.82-1.08-1.37
	c0-0.46,0.21-0.8,0.65-1.08C119.98,48.85,120.65,48.65,121.54,48.55L121.54,48.55z M127.29,49.35v-0.11
	c0.36-0.12,0.62-0.36,0.74-0.73c0.14-0.35,0.21-1.14,0.21-2.34v-0.35v-1.59c0-0.74-0.06-1.2-0.17-1.38
	c-0.12-0.18-0.33-0.29-0.65-0.3v-0.11c0.33-0.05,0.68-0.11,1.05-0.2c0.36-0.08,0.76-0.2,1.17-0.33c0,0.06-0.02,0.39-0.03,1.03
	c-0.02,0.62-0.03,1.18-0.03,1.68v1.62c0,1.18,0.08,1.94,0.2,2.29c0.14,0.33,0.39,0.58,0.76,0.7v0.11c-0.21-0.02-0.44-0.03-0.68-0.03
	c-0.23-0.02-0.56-0.02-0.96-0.02c-0.35,0-0.64,0-0.88,0.02C127.78,49.32,127.53,49.33,127.29,49.35L127.29,49.35z M128.05,40.19
	c0-0.23,0.08-0.42,0.24-0.59c0.15-0.15,0.35-0.23,0.59-0.23c0.23,0,0.42,0.08,0.59,0.24c0.15,0.17,0.24,0.35,0.24,0.58
	c0,0.23-0.09,0.42-0.24,0.58c-0.15,0.15-0.36,0.23-0.59,0.23c-0.26,0-0.46-0.08-0.61-0.23C128.13,40.63,128.05,40.43,128.05,40.19
	L128.05,40.19z M130.36,42.72l0.05-0.24c0.5-0.14,0.93-0.39,1.3-0.76c0.36-0.35,0.71-0.86,1.06-1.55h0.09
	c-0.02,0.27-0.03,0.58-0.05,0.93c-0.02,0.35-0.02,0.73-0.03,1.17h1.55v0.09l-0.15,0.36h-1.4v3.08c0,1.3,0.08,2.18,0.24,2.64
	c0.15,0.46,0.44,0.71,0.85,0.8v0.08c-0.3,0-0.61,0-0.89-0.02c-0.3,0-0.65,0-1.06,0c-0.18-0.12-0.32-0.3-0.39-0.53
	c-0.08-0.23-0.12-0.62-0.12-1.18v-0.55v-0.53v-0.27l0.09-3.52H130.36z M143.57,49.33c-0.33,0-0.59-0.02-0.77-0.02
	c-0.18-0.02-0.36-0.02-0.52-0.02h-0.47c-0.12-0.18-0.21-0.39-0.29-0.62c-0.09-0.21-0.17-0.47-0.23-0.73
	c-0.27,0.49-0.65,0.86-1.12,1.14c-0.49,0.27-1.02,0.39-1.61,0.39c-0.85,0-1.53-0.21-2.06-0.64c-0.53-0.44-0.8-0.99-0.8-1.67
	c0-0.79,0.47-1.38,1.4-1.79c0.94-0.41,2.31-0.61,4.11-0.61h0.08c0-0.96-0.18-1.65-0.53-2.09c-0.35-0.44-0.91-0.65-1.67-0.65
	c-0.67,0-1.23,0.17-1.68,0.52c-0.46,0.35-0.73,0.8-0.82,1.38h-0.08l-0.44-1.43c0.47-0.24,0.97-0.42,1.52-0.56
	c0.55-0.12,1.12-0.18,1.73-0.18c0.5,0,0.96,0.06,1.37,0.17c0.39,0.11,0.76,0.27,1.06,0.49c0.33,0.23,0.56,0.53,0.71,0.89
	c0.14,0.38,0.21,0.89,0.21,1.59v1.87c0,0.8,0.06,1.4,0.21,1.79c0.14,0.38,0.38,0.61,0.7,0.68V49.33z M141.28,45.07
	c-0.06,0-0.14,0-0.21,0c-0.08,0-0.2,0-0.33,0c-1.11,0-1.96,0.18-2.55,0.56c-0.59,0.38-0.89,0.94-0.89,1.64c0,0.56,0.17,1,0.47,1.32
	c0.3,0.32,0.71,0.47,1.24,0.47c0.8,0,1.38-0.27,1.74-0.82c0.35-0.55,0.53-1.46,0.53-2.7V45.07z M143.85,49.35v-0.11
	c0.36-0.12,0.62-0.35,0.76-0.68c0.14-0.35,0.21-1.03,0.21-2.06v-0.67v-4.69c0-0.61-0.06-1-0.18-1.18c-0.11-0.18-0.32-0.27-0.64-0.29
	v-0.12c0.33-0.05,0.67-0.11,1.05-0.18c0.36-0.09,0.76-0.2,1.2-0.33c-0.03,0.47-0.06,0.93-0.08,1.37c-0.02,0.44-0.02,0.88-0.02,1.33
	v4.52c0,1.18,0.06,1.94,0.2,2.29c0.14,0.33,0.39,0.58,0.76,0.7v0.11c-0.23-0.02-0.46-0.03-0.68-0.03c-0.24-0.02-0.56-0.02-0.97-0.02
	c-0.35,0-0.64,0-0.88,0.02C144.34,49.32,144.1,49.33,143.85,49.35L143.85,49.35z M152.06,49.35v-0.11c0.33-0.09,0.56-0.32,0.68-0.65
	c0.12-0.33,0.18-1.18,0.18-2.52v-2.05c0-0.64-0.05-1.03-0.15-1.18s-0.3-0.23-0.59-0.26v-0.11c0.41-0.05,1.05-0.21,1.9-0.5l0.06-0.02
	v2.08c0.2-0.73,0.52-1.29,0.99-1.67c0.49-0.39,1.06-0.59,1.76-0.59c0.76,0,1.35,0.17,1.8,0.5c0.46,0.35,0.76,0.85,0.89,1.52
	c0.23-0.65,0.58-1.14,1.06-1.49c0.49-0.35,1.05-0.53,1.73-0.53c0.91,0,1.59,0.27,2.02,0.83c0.44,0.55,0.65,1.43,0.65,2.62v1.33
	c0,1.08,0.06,1.76,0.18,2.06c0.12,0.3,0.33,0.5,0.67,0.61l-0.02,0.11c-0.2-0.02-0.39-0.03-0.62-0.03c-0.21-0.02-0.52-0.02-0.89-0.02
	c-0.33,0-0.61,0-0.83,0.02c-0.21,0-0.44,0.02-0.65,0.03v-0.11c0.32-0.11,0.53-0.3,0.65-0.61c0.12-0.32,0.18-0.96,0.18-1.94v-0.62
	v-0.73c0-1.05-0.15-1.84-0.46-2.37s-0.74-0.79-1.35-0.79c-0.65,0-1.18,0.27-1.58,0.82s-0.59,1.29-0.59,2.23v1.44
	c0,1,0.06,1.65,0.18,1.96c0.14,0.3,0.36,0.5,0.7,0.61v0.11c-0.29-0.02-0.55-0.03-0.79-0.03c-0.26-0.02-0.49-0.02-0.7-0.02
	c-0.38,0-0.7,0-0.93,0.02c-0.23,0-0.46,0.02-0.68,0.03l-0.02-0.11c0.35-0.11,0.59-0.32,0.71-0.62c0.12-0.3,0.18-1,0.18-2.08v-0.47
	v-0.73c0-1.03-0.15-1.82-0.47-2.35c-0.32-0.55-0.79-0.8-1.41-0.8c-0.68,0-1.21,0.29-1.62,0.86c-0.41,0.56-0.62,1.33-0.62,2.31v1
	v0.17c0,1.12,0.06,1.82,0.18,2.12c0.12,0.29,0.35,0.49,0.68,0.59v0.11c-0.26-0.02-0.52-0.03-0.77-0.03
	c-0.24-0.02-0.5-0.02-0.74-0.02c-0.24,0-0.49,0-0.74,0.02C152.62,49.32,152.35,49.33,152.06,49.35L152.06,49.35z M174.14,44.68
	h-5.92c-0.03,0.21-0.05,0.39-0.05,0.53c-0.02,0.15-0.02,0.27-0.02,0.35c0,1.11,0.26,1.97,0.76,2.59c0.5,0.62,1.18,0.93,2.06,0.93
	c0.73,0,1.35-0.24,1.9-0.73c0.53-0.49,0.93-1.18,1.18-2.08l0.21,0.29c-0.27,0.97-0.73,1.7-1.37,2.2s-1.44,0.74-2.4,0.74
	c-1.14,0-2.08-0.35-2.82-1.08c-0.74-0.71-1.12-1.62-1.12-2.71c0-1.18,0.36-2.12,1.09-2.85c0.71-0.71,1.67-1.08,2.84-1.08
	c1.02,0,1.85,0.26,2.5,0.77C173.66,43.09,174.04,43.78,174.14,44.68L174.14,44.68z M168.24,44.39h4.2c-0.03-0.73-0.21-1.3-0.58-1.71
	c-0.35-0.42-0.8-0.64-1.37-0.64c-0.59,0-1.08,0.2-1.46,0.61C168.65,43.06,168.38,43.65,168.24,44.39L168.24,44.39z M181.62,43.62
	v-2.28c0-0.73-0.05-1.2-0.15-1.38c-0.12-0.18-0.32-0.27-0.64-0.29v-0.12c0.29-0.03,0.59-0.09,0.91-0.17
	c0.33-0.08,0.76-0.2,1.27-0.35c-0.02,0.27-0.03,0.55-0.05,0.82c0,0.29,0,0.64,0,1.03v0.71v4.54c0,1.18,0.06,1.99,0.2,2.38
	c0.12,0.41,0.36,0.65,0.7,0.73v0.09h-0.05c-0.55-0.02-0.96-0.03-1.23-0.03h-0.47c-0.12-0.21-0.21-0.42-0.3-0.64
	c-0.08-0.23-0.14-0.46-0.2-0.68c-0.32,0.49-0.7,0.86-1.17,1.11c-0.46,0.26-0.97,0.38-1.53,0.38c-1.06,0-1.94-0.38-2.65-1.14
	c-0.7-0.76-1.05-1.7-1.05-2.85c0-1.08,0.35-1.97,1.06-2.67c0.71-0.7,1.62-1.05,2.73-1.05c0.62,0,1.15,0.17,1.62,0.5
	C181.11,42.59,181.42,43.04,181.62,43.62L181.62,43.62z M176.81,45.6c0,1.09,0.21,1.94,0.65,2.58c0.44,0.62,1.02,0.94,1.76,0.94
	s1.33-0.3,1.76-0.93c0.42-0.61,0.64-1.47,0.64-2.56c0-1.11-0.21-1.97-0.64-2.59c-0.42-0.62-1.02-0.94-1.79-0.94
	c-0.73,0-1.3,0.32-1.73,0.94C177.03,43.68,176.81,44.53,176.81,45.6L176.81,45.6z M184.21,49.35v-0.11
	c0.36-0.12,0.62-0.36,0.74-0.73c0.14-0.35,0.21-1.14,0.21-2.34v-0.35v-1.59c0-0.74-0.06-1.2-0.17-1.38
	c-0.12-0.18-0.33-0.29-0.65-0.3l-0.02-0.11c0.35-0.05,0.7-0.11,1.06-0.2c0.36-0.08,0.76-0.2,1.17-0.33c0,0.06-0.02,0.39-0.03,1.03
	c-0.02,0.62-0.03,1.18-0.03,1.68v1.62c0,1.18,0.06,1.94,0.2,2.29c0.14,0.33,0.39,0.58,0.76,0.7v0.11c-0.21-0.02-0.44-0.03-0.68-0.03
	c-0.23-0.02-0.56-0.02-0.97-0.02c-0.33,0-0.64,0-0.88,0.02C184.7,49.32,184.46,49.33,184.21,49.35L184.21,49.35z M184.97,40.19
	c0-0.23,0.08-0.42,0.23-0.59c0.17-0.15,0.36-0.23,0.61-0.23c0.23,0,0.42,0.08,0.59,0.24c0.15,0.17,0.23,0.35,0.23,0.58
	c0,0.23-0.08,0.42-0.23,0.58c-0.17,0.15-0.36,0.23-0.59,0.23c-0.26,0-0.46-0.08-0.61-0.23C185.05,40.63,184.97,40.43,184.97,40.19
	L184.97,40.19z M196,49.33c-0.33,0-0.59-0.02-0.79-0.02c-0.18-0.02-0.35-0.02-0.5-0.02h-0.49c-0.11-0.18-0.2-0.39-0.29-0.62
	c-0.08-0.21-0.15-0.47-0.21-0.73c-0.27,0.49-0.65,0.86-1.14,1.14c-0.47,0.27-1,0.39-1.61,0.39c-0.83,0-1.53-0.21-2.06-0.64
	c-0.52-0.44-0.79-0.99-0.79-1.67c0-0.79,0.47-1.38,1.4-1.79c0.93-0.41,2.29-0.61,4.1-0.61h0.09c-0.02-0.96-0.18-1.65-0.55-2.09
	c-0.35-0.44-0.89-0.65-1.65-0.65c-0.67,0-1.23,0.17-1.68,0.52c-0.46,0.35-0.73,0.8-0.82,1.38h-0.08l-0.46-1.43
	c0.47-0.24,0.99-0.42,1.53-0.56c0.53-0.12,1.11-0.18,1.71-0.18c0.52,0,0.97,0.06,1.37,0.17c0.41,0.11,0.77,0.27,1.08,0.49
	c0.33,0.23,0.56,0.53,0.7,0.89c0.15,0.38,0.21,0.89,0.21,1.59v1.87c0,0.8,0.08,1.4,0.21,1.79c0.15,0.38,0.38,0.61,0.71,0.68V49.33z
	 M193.71,45.07c-0.06,0-0.14,0-0.21,0c-0.09,0-0.2,0-0.33,0c-1.11,0-1.96,0.18-2.55,0.56c-0.59,0.38-0.89,0.94-0.89,1.64
	c0,0.56,0.15,1,0.46,1.32c0.3,0.32,0.73,0.47,1.26,0.47c0.79,0,1.37-0.27,1.73-0.82c0.36-0.55,0.55-1.46,0.55-2.7V45.07z"/>
<path class="st2" d="M124.21,27.08l0.55,0.7c-0.83,1.77-1.97,3.14-3.41,4.06c-1.44,0.94-3.14,1.4-5.1,1.4
	c-3.09,0-5.63-0.94-7.58-2.84c-1.99-1.9-2.97-4.32-2.97-7.3c0-3.05,1-5.51,2.99-7.39c1.99-1.9,4.58-2.84,7.8-2.84
	c1.53,0,2.97,0.18,4.32,0.56c1.35,0.38,2.62,0.93,3.81,1.67l-1.21,3.97h-0.23c-0.36-1.68-1.12-3.02-2.29-4
	c-1.17-1-2.55-1.49-4.14-1.49c-2.02,0-3.67,0.8-4.9,2.43c-1.24,1.62-1.87,3.78-1.87,6.49c0,2.99,0.65,5.34,1.94,7.04
	c1.29,1.73,3.03,2.58,5.25,2.58c1.53,0,2.9-0.42,4.1-1.29C122.45,30,123.44,28.74,124.21,27.08L124.21,27.08z M149.25,32.54v0.18
	h-4.66c-0.29-0.5-0.55-1.05-0.76-1.64c-0.23-0.58-0.41-1.23-0.56-1.93c-0.71,1.35-1.65,2.37-2.82,3.05
	c-1.15,0.7-2.52,1.03-4.06,1.03c-1.58,0-2.97-0.24-4.19-0.76c-1.2-0.5-2.12-1.21-2.75-2.14c-0.46-0.65-0.77-1.46-0.96-2.44
	c-0.18-0.97-0.29-2.53-0.29-4.72v-1.12v-3.62c0-1.43-0.14-2.35-0.44-2.78c-0.29-0.41-0.85-0.65-1.67-0.73v-0.3
	c0.73-0.09,1.53-0.23,2.41-0.42c0.88-0.21,1.99-0.53,3.34-0.94c-0.05,1.05-0.08,2.09-0.11,3.15c-0.03,1.05-0.03,2.11-0.03,3.15v2.41
	c0,4.06,0.41,6.78,1.24,8.18c0.83,1.4,2.31,2.08,4.4,2.08c1.9,0,3.37-0.8,4.4-2.44c1.03-1.62,1.55-3.96,1.55-6.99v-3.44
	c0-1.96-0.14-3.17-0.41-3.64c-0.29-0.49-0.83-0.74-1.64-0.79v-0.3c0.76-0.09,1.59-0.24,2.47-0.46c0.88-0.21,1.97-0.52,3.25-0.91
	c-0.05,1.03-0.08,2.11-0.11,3.2c-0.03,1.11-0.03,2.28-0.03,3.53v4.37c0,3.14,0.17,5.25,0.52,6.29
	C147.72,31.71,148.34,32.35,149.25,32.54L149.25,32.54z M150,32.8v-0.26c0.91-0.21,1.53-0.85,1.87-1.9c0.35-1.06,0.52-3.2,0.52-6.42
	v-12.8c0-1.84-0.15-2.97-0.42-3.4c-0.27-0.44-0.82-0.67-1.62-0.71v-0.3c0.73-0.09,1.52-0.23,2.4-0.44c0.88-0.2,1.99-0.52,3.32-0.94
	c-0.05,0.96-0.09,1.94-0.11,2.94c-0.03,1-0.05,2.28-0.05,3.87v5.48c0.47-1.56,1.32-2.81,2.56-3.72c1.24-0.91,2.7-1.35,4.38-1.35
	c2.91,0,5.29,0.91,7.16,2.75c1.87,1.84,2.81,4.19,2.81,7.05c0,3.02-0.93,5.52-2.79,7.52c-1.85,1.99-4.19,3-6.99,3
	c-1.49,0-2.84-0.35-4.05-1.02c-1.21-0.67-2.23-1.64-3.08-2.93c-0.11,0.61-0.29,1.2-0.5,1.77c-0.21,0.58-0.49,1.15-0.79,1.71h-2.2
	c-0.18,0-0.61,0.02-1.27,0.05C150.68,32.77,150.3,32.79,150,32.8L150,32.8z M155.9,23.03c0,2.9,0.58,5.16,1.7,6.78
	c1.12,1.62,2.68,2.43,4.66,2.43c1.94,0,3.49-0.82,4.64-2.47c1.14-1.65,1.71-3.9,1.71-6.73c0-2.88-0.56-5.16-1.7-6.81
	c-1.12-1.65-2.67-2.49-4.61-2.49c-2.02,0-3.58,0.82-4.7,2.46C156.47,17.82,155.9,20.11,155.9,23.03L155.9,23.03z M195.62,20.55H180
	c-0.05,0.55-0.08,1-0.11,1.4c-0.02,0.38-0.02,0.68-0.02,0.91c0,2.91,0.65,5.19,1.97,6.83c1.32,1.64,3.14,2.46,5.46,2.46
	c1.91,0,3.56-0.65,4.97-1.93c1.43-1.29,2.47-3.11,3.14-5.48l0.58,0.74c-0.74,2.56-1.96,4.49-3.62,5.81
	c-1.68,1.3-3.78,1.96-6.31,1.96c-3,0-5.48-0.94-7.45-2.84c-1.96-1.9-2.94-4.29-2.94-7.14c0-3.12,0.96-5.63,2.85-7.52
	c1.91-1.91,4.41-2.85,7.51-2.85c2.68,0,4.88,0.68,6.58,2.05C194.35,16.3,195.33,18.17,195.62,20.55L195.62,20.55z M180.06,19.76
	h11.07c-0.08-1.91-0.56-3.43-1.49-4.54c-0.94-1.11-2.14-1.67-3.64-1.67c-1.52,0-2.81,0.55-3.84,1.62
	C181.14,16.27,180.44,17.79,180.06,19.76L180.06,19.76z"/>
</svg>
